<svg class="animated" id="freepik_stories-charts" xmlns="http://www.w3.org/2000/svg" viewBox="0 0 500 500" version="1.1" xmlns:xlink="http://www.w3.org/1999/xlink" xmlns:svgjs="http://svgjs.com/svgjs"><style>svg#freepik_stories-charts:not(.animated) .animable {opacity: 0;}svg#freepik_stories-charts.animated #freepik--Floor--inject-70 {animation: 1s 1 forwards cubic-bezier(.36,-0.01,.5,1.38) zoomOut;animation-delay: 0s;}svg#freepik_stories-charts.animated #freepik--grey-charts--inject-70 {animation: 1s 1 forwards cubic-bezier(.36,-0.01,.5,1.38) zoomOut;animation-delay: 0s;}svg#freepik_stories-charts.animated #freepik--Plants--inject-70 {animation: 1s 1 forwards cubic-bezier(.36,-0.01,.5,1.38) slideLeft;animation-delay: 0s;}svg#freepik_stories-charts.animated #freepik--Charts--inject-70 {animation: 1s 1 forwards cubic-bezier(.36,-0.01,.5,1.38) zoomOut;animation-delay: 0s;}svg#freepik_stories-charts.animated #freepik--speech-bubbles--inject-70 {animation: 1s 1 forwards cubic-bezier(.36,-0.01,.5,1.38) slideRight;animation-delay: 0s;}            @keyframes zoomOut {                0% {                    opacity: 0;                    transform: scale(1.5);                }                100% {                    opacity: 1;                    transform: scale(1);                }            }                    @keyframes slideLeft {                0% {                    opacity: 0;                    transform: translateX(-30px);                }                100% {                    opacity: 1;                    transform: translateX(0);                }            }                    @keyframes slideRight {                0% {                    opacity: 0;                    transform: translateX(30px);                }                100% {                    opacity: 1;                    transform: translateX(0);                }            }        </style><g id="freepik--Floor--inject-70" class="animable" style="transform-origin: 249.6px 306.557px;"><path d="M100.69,384.34c82.24,43,215.58,43,297.82,0s82.24-112.62,0-155.58-215.58-43-297.82,0S18.45,341.37,100.69,384.34Z" style="fill: rgb(245, 245, 245); transform-origin: 249.6px 306.557px;" id="elw2zmym0fijk" class="animable"></path></g><g id="freepik--grey-charts--inject-70" class="animable" style="transform-origin: 248.38px 164.45px;"><polygon points="146.12 186.71 165.94 175.27 146.12 163.83 126.12 175.27 146.12 186.71" style="fill: none; stroke: rgb(235, 235, 235); stroke-linecap: round; stroke-linejoin: round; stroke-width: 1.08419px; transform-origin: 146.03px 175.27px;" id="el7eskkc9zlsn" class="animable"></polygon><polygon points="130.73 175.28 146.13 130.77 146.13 184.17 130.73 175.28" style="fill: rgb(224, 224, 224); transform-origin: 138.43px 157.47px;" id="el6il7ayhamo8" class="animable"></polygon><polygon points="146.13 184.17 161.52 175.28 146.13 130.77 146.13 184.17" style="fill: rgb(230, 230, 230); transform-origin: 153.825px 157.47px;" id="elpmm9yb978j" class="animable"></polygon><polygon points="121.9 200.67 141.72 189.23 121.9 177.79 101.9 189.23 121.9 200.67" style="fill: none; stroke: rgb(235, 235, 235); stroke-linecap: round; stroke-linejoin: round; stroke-width: 1.08419px; transform-origin: 121.81px 189.23px;" id="elfxs33ci5p25" class="animable"></polygon><polygon points="106.51 189.24 121.9 123.14 121.9 198.13 106.51 189.24" style="fill: rgb(224, 224, 224); transform-origin: 114.205px 160.635px;" id="el5vi0xy8wtst" class="animable"></polygon><polygon points="121.9 198.13 137.29 189.24 121.9 123.14 121.9 198.13" style="fill: rgb(230, 230, 230); transform-origin: 129.595px 160.635px;" id="eld05bwqaej0g" class="animable"></polygon><polygon points="97.68 214.63 117.5 203.19 97.68 191.75 77.67 203.19 97.68 214.63" style="fill: none; stroke: rgb(235, 235, 235); stroke-linecap: round; stroke-linejoin: round; stroke-width: 1.08419px; transform-origin: 97.585px 203.19px;" id="elfzuaq6egri5" class="animable"></polygon><polygon points="82.29 203.2 97.68 163.83 97.68 212.09 82.29 203.2" style="fill: rgb(224, 224, 224); transform-origin: 89.985px 187.96px;" id="eljbidry1egn" class="animable"></polygon><polygon points="97.68 212.09 113.07 203.2 97.68 163.83 97.68 212.09" style="fill: rgb(230, 230, 230); transform-origin: 105.375px 187.96px;" id="elni8e8kjslaa" class="animable"></polygon><polygon points="73.46 228.59 93.28 217.15 73.46 205.71 53.45 217.15 73.46 228.59" style="fill: none; stroke: rgb(235, 235, 235); stroke-linecap: round; stroke-linejoin: round; stroke-width: 1.08419px; transform-origin: 73.365px 217.15px;" id="el79fds38fobs" class="animable"></polygon><polygon points="58.06 217.16 73.46 150.32 73.46 226.05 58.06 217.16" style="fill: rgb(224, 224, 224); transform-origin: 65.76px 188.185px;" id="elcarjsaoehic" class="animable"></polygon><polygon points="73.46 226.05 88.85 217.16 73.46 150.32 73.46 226.05" style="fill: rgb(230, 230, 230); transform-origin: 81.155px 188.185px;" id="eljof43r59bf" class="animable"></polygon><line x1="337.61" y1="171.5" x2="443.31" y2="232.52" style="fill: none; stroke: rgb(235, 235, 235); stroke-linecap: round; stroke-miterlimit: 10; stroke-width: 1.08419px; transform-origin: 390.46px 202.01px;" id="elpcc82ogelxp" class="animable"></line><path d="M443.31,226.05a214.9,214.9,0,0,0-1.61-22.91c-1-8.26-3-22.2-10.95-26.8s-10.95,3.72-12.1,7.81c-1.5,5.31-9.29,1.95-10.37-6.8s-1.79-36.63-11.13-42-12.35,7.58-13.41,11.2c-2.09,7.11-8.22,5.15-10.22.44s-7.46-5.86-9.52.77-3.33,14.24-10,10.33c-5.86-3.43-3.17-9.68-8.88-12.65-4.52-2.34-6.62,8.82-6.62,20.11Z" style="fill: rgb(224, 224, 224); transform-origin: 390.905px 180.057px;" id="elatotws0vlb" class="animable"></path><path d="M435.63,167.86c0,1.22-1.1,1.57-2.44.8l-8-4.64a4.9,4.9,0,0,1-2.44-3.61c0-1.21,1.1-1.57,2.44-.79l8,4.64A4.88,4.88,0,0,1,435.63,167.86Z" style="fill: rgb(230, 230, 230); transform-origin: 429.19px 164.138px;" id="elcb1xczo4xx" class="animable"></path><path d="M402.79,128.63c0,1.22-1.09,1.57-2.44.8l-8-4.64a4.87,4.87,0,0,1-2.44-3.61c0-1.21,1.09-1.57,2.44-.79l8,4.64A4.86,4.86,0,0,1,402.79,128.63Z" style="fill: rgb(230, 230, 230); transform-origin: 396.35px 124.908px;" id="ele0gbguobs9r" class="animable"></path><path d="M376.78,135.85c0,1.22-1.09,1.57-2.43.8l-8-4.64a4.87,4.87,0,0,1-2.44-3.61c0-1.21,1.09-1.57,2.44-.79l8,4.64A4.87,4.87,0,0,1,376.78,135.85Z" style="fill: rgb(230, 230, 230); transform-origin: 370.345px 132.128px;" id="elq3hl6rf0kqn" class="animable"></path><path d="M352.12,138.24c0,1.22-1.09,1.57-2.44.79l-8-4.63a4.89,4.89,0,0,1-2.43-3.61c0-1.21,1.09-1.57,2.43-.79l8,4.63A4.89,4.89,0,0,1,352.12,138.24Z" style="fill: rgb(230, 230, 230); transform-origin: 345.685px 134.516px;" id="el36o46c5obme" class="animable"></path><line x1="333.21" y1="162.49" x2="333.21" y2="96.38" style="fill: none; stroke: rgb(235, 235, 235); stroke-linecap: round; stroke-miterlimit: 10; stroke-width: 1.08419px; transform-origin: 333.21px 129.435px;" id="elo2wk6jw9hk" class="animable"></line></g><g id="freepik--Plants--inject-70" class="animable" style="transform-origin: 249.997px 287.482px;"><path d="M77,308.72s1.64-14.68-2.91-28.66C69.81,266.84,61.21,259.83,56,257.73c-9.85-3.93-10.73,6.92-3.35,14.43,5.41,5.52,18.43,16.9,20.67,36.2Z" style="fill: rgb(123, 104, 238); transform-origin: 62.527px 282.809px;" id="el9o1aj12g1ja" class="animable"></path><g id="elf28yxab1dok"><path d="M77,308.72s1.64-14.68-2.91-28.66C69.81,266.84,61.21,259.83,56,257.73c-9.85-3.93-10.73,6.92-3.35,14.43,5.41,5.52,18.43,16.9,20.67,36.2Z" style="fill: rgb(255, 255, 255); opacity: 0.7; transform-origin: 62.527px 282.809px;" class="animable"></path></g><path d="M53.34,260.76c5.95,4,21.94,15.55,22.52,47.85" style="fill: none; stroke: rgb(250, 250, 250); stroke-linecap: round; stroke-miterlimit: 10; stroke-width: 1.08419px; transform-origin: 64.6px 284.685px;" id="el2nlz7cy5oth" class="animable"></path><path d="M72.81,318.75c-3.06-14.8-9.31-20.17-20.48-25.89-4.78-2.44-10.38-5.16-12.4-8.27s-1-7.29,5.88-7.2c12.57.17,26.89,15.32,28.8,31.92Z" style="fill: rgb(123, 104, 238); transform-origin: 56.8091px 298.069px;" id="elngzxqcyq3uf" class="animable"></path><g id="elg6zt4vldypc"><path d="M72.81,318.75c-3.06-14.8-9.31-20.17-20.48-25.89-4.78-2.44-10.38-5.16-12.4-8.27s-1-7.29,5.88-7.2c12.57.17,26.89,15.32,28.8,31.92Z" style="fill: rgb(255, 255, 255); opacity: 0.8; transform-origin: 56.8091px 298.069px;" class="animable"></path></g><path d="M44.75,280.61c9.49,1.29,24.48,12.35,29.24,32" style="fill: none; stroke: rgb(250, 250, 250); stroke-linecap: round; stroke-miterlimit: 10; stroke-width: 1.08419px; transform-origin: 59.37px 296.61px;" id="el013wdxuuxfkx" class="animable"></path><path d="M423.4,301.79c3.85-7.4,6.84-28.16,1.89-37.76s-12.31-8.83-13.45-5.72c-1,2.87,1.47,8,4.67,14.11s5.9,19.2,2.87,25.3Z" style="fill: rgb(123, 104, 238); transform-origin: 419.749px 279.002px;" id="el5f15y8s1of4" class="animable"></path><g id="elzzf94l5jnw"><path d="M423.4,301.79c3.85-7.4,6.84-28.16,1.89-37.76s-12.31-8.83-13.45-5.72c-1,2.87,1.47,8,4.67,14.11s5.9,19.2,2.87,25.3Z" style="fill: rgb(255, 255, 255); opacity: 0.7; transform-origin: 419.749px 279.002px;" class="animable"></path></g><path d="M416.7,258.81c3.15,2.53,12.17,18,5.86,39.23" style="fill: none; stroke: rgb(250, 250, 250); stroke-linecap: round; stroke-miterlimit: 10; stroke-width: 1.08419px; transform-origin: 420.725px 278.425px;" id="elcltx2tk83tw" class="animable"></path><path d="M422.18,309.63c-2.32-4.64-7.4-12.32-3.94-17.59s7.08-.61,9.86-4.05-.4-9,2-12c4.64-5.9,8,.95,11.64.05,2.63-.65,5.56-6.48,13.13-5.77s7.19,6.71,3.82,9.53-7.37,5.63-4.77,9.86c2.3,3.75,3.49,10.68-4.38,13.37-7.52,2.57-3.8,5.83-5,9.51s-8.3,7.17-15.85,4.33Z" style="fill: rgb(123, 104, 238); transform-origin: 439.027px 294.06px;" id="ellwkyqophup" class="animable"></path><g id="elkxd1h8ewwdb"><path d="M422.18,309.63c-2.32-4.64-7.4-12.32-3.94-17.59s7.08-.61,9.86-4.05-.4-9,2-12c4.64-5.9,8,.95,11.64.05,2.63-.65,5.56-6.48,13.13-5.77s7.19,6.71,3.82,9.53-7.37,5.63-4.77,9.86c2.3,3.75,3.49,10.68-4.38,13.37-7.52,2.57-3.8,5.83-5,9.51s-8.3,7.17-15.85,4.33Z" style="fill: rgb(255, 255, 255); opacity: 0.8; transform-origin: 439.027px 294.06px;" class="animable"></path></g><path d="M455.91,273.67c-8.2,2.2-27.84,18.16-29.5,38.19" style="fill: none; stroke: rgb(250, 250, 250); stroke-linecap: round; stroke-miterlimit: 10; stroke-width: 1.08419px; transform-origin: 441.16px 292.765px;" id="elv6kbg5q6ipk" class="animable"></path><path d="M450,294.7c-4.05-.92-14.34-1.05-18.19.82" style="fill: none; stroke: rgb(250, 250, 250); stroke-linecap: round; stroke-miterlimit: 10; stroke-width: 1.08419px; transform-origin: 440.905px 294.784px;" id="eltta0rir93ho" class="animable"></path><path d="M434.1,277.75s3,5.81,2.57,10.7" style="fill: none; stroke: rgb(250, 250, 250); stroke-linecap: round; stroke-miterlimit: 10; stroke-width: 1.08419px; transform-origin: 435.406px 283.1px;" id="elf4xr86urjwl" class="animable"></path></g><g id="freepik--Charts--inject-70" class="animable" style="transform-origin: 250.574px 269.74px;"><path d="M322.24,221a31.32,31.32,0,0,0-7-12.47A53,53,0,0,0,301.88,198a84.7,84.7,0,0,0-18.36-7.71,112.39,112.39,0,0,0-21.6-4,124.83,124.83,0,0,0-22.71,0,112.28,112.28,0,0,0-21.59,4A84.58,84.58,0,0,0,199.25,198a53.14,53.14,0,0,0-13.35,10.6,31.42,31.42,0,0,0-7,12.47,24.46,24.46,0,0,0,0,13.12,31.06,31.06,0,0,0,7,12.46,53.18,53.18,0,0,0,13.36,10.61,84.31,84.31,0,0,0,18.35,7.7A113.12,113.12,0,0,0,239.21,269a126.66,126.66,0,0,0,22.71,0,113.12,113.12,0,0,0,21.61-4.05,84.31,84.31,0,0,0,18.35-7.7h0a53,53,0,0,0,13.36-10.61,31.21,31.21,0,0,0,7-12.46A24.65,24.65,0,0,0,322.24,221Z" style="fill: rgb(55, 71, 79); transform-origin: 250.571px 227.641px;" id="elvhnacxcn14f" class="animable"></path><polygon points="178 221.02 323.13 221.02 323.13 228.42 178 228.01 178 221.02" style="fill: rgb(55, 71, 79); transform-origin: 250.565px 224.72px;" id="el3mezrop6774" class="animable"></polygon><path d="M239.21,179.66,250.55,221,217.62,183.7A112.28,112.28,0,0,1,239.21,179.66Z" style="fill: rgb(69, 90, 100); transform-origin: 234.085px 200.33px;" id="el4el8zhm7t4l" class="animable"></path><path d="M261.92,179.66,250.58,221h0l-11.34-41.36A124.83,124.83,0,0,1,261.92,179.66Z" style="fill: rgb(69, 90, 100); transform-origin: 250.58px 200.067px;" id="el0njyfjlbpw2" class="animable"></path><path d="M283.52,183.7,250.58,221l11.34-41.36A112.39,112.39,0,0,1,283.52,183.7Z" style="fill: rgb(69, 90, 100); transform-origin: 267.05px 200.32px;" id="elb73f2xdvegt" class="animable"></path><path d="M315.23,202a31.43,31.43,0,0,1,7,12.48L250.59,221h0Z" style="fill: rgb(69, 90, 100); transform-origin: 286.41px 211.5px;" id="elow2dlmh2pa" class="animable"></path><path d="M322.24,214.49a24.62,24.62,0,0,1,0,13.11L250.59,221Z" style="fill: rgb(69, 90, 100); transform-origin: 286.859px 221.045px;" id="elrkp4at3y1vp" class="animable"></path><path d="M322.24,227.6a31.31,31.31,0,0,1-7,12.47l-64.65-19Z" style="fill: rgb(69, 90, 100); transform-origin: 286.415px 230.57px;" id="elix88k82b5dm" class="animable"></path><path d="M315.24,240.07a53,53,0,0,1-13.36,10.6L250.57,221h0Z" style="fill: rgb(69, 90, 100); transform-origin: 282.905px 235.835px;" id="elkujpv4oxvyo" class="animable"></path><path d="M250.58,221.05l32.95,37.33a112.35,112.35,0,0,1-21.61,4l-11.35-41.36Z" style="fill: rgb(69, 90, 100); transform-origin: 267.05px 241.7px;" id="el9p0r8omfpmj" class="animable"></path><path d="M250.57,221.06l11.35,41.36a124.83,124.83,0,0,1-22.71,0Z" style="fill: rgb(69, 90, 100); transform-origin: 250.565px 241.999px;" id="el6s5anh8agwo" class="animable"></path><path d="M250.55,221.05h0l-11.36,41.36a112.35,112.35,0,0,1-21.61-4Z" style="fill: rgb(69, 90, 100); transform-origin: 234.065px 241.73px;" id="elwi59jutwk" class="animable"></path><path d="M250.55,221.05l-33,37.33a84.83,84.83,0,0,1-18.35-7.71Z" style="fill: rgb(69, 90, 100); transform-origin: 224.875px 239.715px;" id="el4ztgmx8di87" class="animable"></path><path d="M250.54,221l-64.65,19a31.16,31.16,0,0,1-7-12.47Z" style="fill: rgb(69, 90, 100); transform-origin: 214.715px 230.5px;" id="elyod3eoowckq" class="animable"></path><path d="M250.54,221,178.9,227.6a24.42,24.42,0,0,1,0-13.11Z" style="fill: rgb(69, 90, 100); transform-origin: 214.272px 221.045px;" id="elfzmkqlwrw5q" class="animable"></path><path d="M250.54,221h0l-71.64-6.55a31.52,31.52,0,0,1,7-12.48Z" style="fill: rgb(69, 90, 100); transform-origin: 214.72px 211.485px;" id="elljvur8lxol" class="animable"></path><path d="M199.25,191.42,250.54,221,185.9,202A53.12,53.12,0,0,1,199.25,191.42Z" style="fill: rgb(69, 90, 100); transform-origin: 218.22px 206.21px;" id="elzi2azy3cobb" class="animable"></path><path d="M301.88,191.42,250.58,221h0l32.94-37.32A84.23,84.23,0,0,1,301.88,191.42Z" style="fill: rgb(69, 90, 100); transform-origin: 276.23px 202.34px;" id="elkuoeoc3qmq" class="animable"></path><path d="M301.88,191.42A52.94,52.94,0,0,1,315.23,202l-64.64,19Z" style="fill: rgb(69, 90, 100); transform-origin: 282.91px 206.21px;" id="elwwujmmebhbf" class="animable"></path><path d="M250.55,221h0l-51.32,29.63a53.16,53.16,0,0,1-13.36-10.6l64.65-19Z" style="fill: rgb(69, 90, 100); transform-origin: 218.21px 235.815px;" id="el7inzarnic0i" class="animable"></path><path d="M217.62,183.7,250.55,221h0l-51.3-29.62A84.11,84.11,0,0,1,217.62,183.7Z" style="fill: rgb(69, 90, 100); transform-origin: 224.9px 202.35px;" id="eldi5vzlbfpuv" class="animable"></path><path d="M250.58,221.05l51.3,29.62a84.83,84.83,0,0,1-18.35,7.71Z" style="fill: rgb(69, 90, 100); transform-origin: 276.23px 239.715px;" id="elcmj17gv4uv" class="animable"></path><path d="M206.68,179.28l40.75,23.52-2-33.25C230.44,170.19,217.71,173.39,206.68,179.28Z" style="fill: rgb(123, 104, 238); transform-origin: 227.055px 186.175px;" id="elrw4fr6pk7w" class="animable"></path><g id="eli6dcc3q8wbg"><path d="M206.68,179.28l40.75,23.52-2-33.25C230.44,170.19,217.71,173.39,206.68,179.28Z" style="fill: rgb(255, 255, 255); opacity: 0.2; transform-origin: 227.055px 186.175px;" class="animable"></path></g><polygon points="247.43 202.8 247.43 215.64 206.68 192.11 206.68 179.28 247.43 202.8" style="fill: rgb(123, 104, 238); transform-origin: 227.055px 197.46px;" id="elsno8jasrji" class="animable"></polygon><g id="elhrfmx52fem"><polygon points="247.43 202.8 247.43 215.64 206.68 192.11 206.68 179.28 247.43 202.8" style="opacity: 0.1; transform-origin: 227.055px 197.46px;" class="animable"></polygon></g><polygon points="300.26 182.58 253.49 203.68 253.49 216.51 300.26 195.41 300.26 182.58" style="fill: rgb(123, 104, 238); transform-origin: 276.875px 199.545px;" id="elw4lk3i7n9lm" class="animable"></polygon><g id="elgoazo1zp5yo"><polygon points="300.26 182.58 253.49 203.68 253.49 216.51 300.26 195.41 300.26 182.58" style="opacity: 0.3; transform-origin: 276.875px 199.545px;" class="animable"></polygon></g><path d="M300.26,182.58c-12.59-8.57-29.38-13.09-48.84-13.15l1.25,20.79.82,13.46Z" style="fill: rgb(123, 104, 238); transform-origin: 275.84px 186.555px;" id="el2fp7wau1o43" class="animable"></path><g id="el3l7pdh9zvh"><path d="M300.26,182.58c-12.59-8.57-29.38-13.09-48.84-13.15l1.25,20.79.82,13.46Z" style="opacity: 0.1; transform-origin: 275.84px 186.555px;" class="animable"></path></g><polygon points="251.41 169.43 251.41 182.26 253.49 216.51 253.49 203.68 251.41 169.43" style="fill: rgb(38, 50, 56); transform-origin: 252.45px 192.97px;" id="el3smzxy7satv" class="animable"></polygon><path d="M263,228.39l23.91,23c1.34-.51,2.58-1,4-1.68,16.47-7.42,25.08-18.54,25.07-29.76v-12.7c-1.81-4.83-6.79-4.82-12-9.07l-48.83,22-.49.22Z" style="fill: rgb(123, 104, 238); transform-origin: 285.32px 224.785px;" id="eldfq8jwelgbr" class="animable"></path><g id="el9247wct170h"><path d="M263,228.39l23.91,23c1.34-.51,2.58-1,4-1.68,16.47-7.42,25.08-18.54,25.07-29.76v-12.7c-1.81-4.83-6.79-4.82-12-9.07l-48.83,22-.49.22Z" style="fill: rgb(255, 255, 255); opacity: 0.6; transform-origin: 285.32px 224.785px;" class="animable"></path></g><path d="M263,215.56l23.91,23c1.34-.51,2.58-1,4-1.69C318.48,224.42,324,201.62,304,185.31l-48.83,22-.49.22Z" style="fill: rgb(123, 104, 238); transform-origin: 285.327px 211.935px;" id="eld5xuf93raia" class="animable"></path><g id="el7hyfu29bm1t"><path d="M263,215.56l23.91,23c1.34-.51,2.58-1,4-1.69C318.48,224.42,324,201.62,304,185.31l-48.83,22-.49.22Z" style="fill: rgb(255, 255, 255); opacity: 0.8; transform-origin: 285.327px 211.935px;" class="animable"></path></g><polygon points="286.87 251.37 286.87 238.53 254.63 207.56 254.63 220.39 286.87 251.37" style="fill: rgb(123, 104, 238); transform-origin: 270.75px 229.465px;" id="elb5rk3pg3k8n" class="animable"></polygon><g id="eluwrxpan5oge"><polygon points="286.87 251.37 286.87 238.53 254.63 207.56 254.63 220.39 286.87 251.37" style="fill: rgb(255, 255, 255); opacity: 0.6; transform-origin: 270.75px 229.465px;" class="animable"></polygon></g><path d="M202.44,194.56c-6.87,4.33-14.5,7.06-17.28,12.32v12.84c0,6.69,3.11,13.47,9.56,19.67,9,8.63,23.25,14.73,40.18,17.16a107.91,107.91,0,0,0,46.82-3.41V240.31l-21.05-7.4L248.31,221Z" style="fill: rgb(123, 104, 238); transform-origin: 233.44px 226.133px;" id="elwixjoal6xqo" class="animable"></path><g id="elv0zwpzqlval"><path d="M202.44,194.56c-6.87,4.33-14.5,7.06-17.28,12.32v12.84c0,6.69,3.11,13.47,9.56,19.67,9,8.63,23.25,14.73,40.18,17.16a107.91,107.91,0,0,0,46.82-3.41V240.31l-21.05-7.4L248.31,221Z" style="opacity: 0.6; transform-origin: 233.44px 226.133px;" class="animable"></path></g><path d="M202.44,181.73c-19.74,12.42-22.92,30.22-7.72,44.82,9,8.64,23.25,14.73,40.18,17.17a108.07,108.07,0,0,0,46.82-3.41l-21.05-20.23-12.36-11.87Z" style="fill: rgb(123, 104, 238); transform-origin: 233.44px 213.302px;" id="el2ezy79gjgzh" class="animable"></path><g id="elzjn5swnvdc"><path d="M202.44,181.73c-19.74,12.42-22.92,30.22-7.72,44.82,9,8.64,23.25,14.73,40.18,17.17a108.07,108.07,0,0,0,46.82-3.41l-21.05-20.23-12.36-11.87Z" style="opacity: 0.3; transform-origin: 233.44px 213.302px;" class="animable"></path></g><path d="M431.49,321.65a31.32,31.32,0,0,0-7-12.47,53,53,0,0,0-13.35-10.6,84.7,84.7,0,0,0-18.36-7.71,112.39,112.39,0,0,0-21.6-4,124.83,124.83,0,0,0-22.71,0,112.43,112.43,0,0,0-21.59,4,84.7,84.7,0,0,0-18.36,7.71,53,53,0,0,0-13.36,10.6,31.42,31.42,0,0,0-7,12.47,24.46,24.46,0,0,0,0,13.12,31.06,31.06,0,0,0,7,12.46,53.18,53.18,0,0,0,13.36,10.61,84.73,84.73,0,0,0,18.35,7.7,113.27,113.27,0,0,0,21.61,4,126.66,126.66,0,0,0,22.71,0,113.12,113.12,0,0,0,21.61-4,83.85,83.85,0,0,0,18.35-7.71h0a53,53,0,0,0,13.37-10.6,31.3,31.3,0,0,0,7-12.46A24.55,24.55,0,0,0,431.49,321.65Z" style="fill: rgb(55, 71, 79); transform-origin: 359.831px 328.201px;" id="elao0sxzhuijb" class="animable"></path><polygon points="287.25 321.64 432.38 321.64 432.38 329.04 287.25 328.63 287.25 321.64" style="fill: rgb(55, 71, 79); transform-origin: 359.815px 325.34px;" id="el13xahwoh910i" class="animable"></polygon><path d="M348.46,280.28l11.35,41.36-32.94-37.32A112.43,112.43,0,0,1,348.46,280.28Z" style="fill: rgb(69, 90, 100); transform-origin: 343.34px 300.96px;" id="el22ziv1y4r9j" class="animable"></path><path d="M371.17,280.28l-11.34,41.36h0l-11.35-41.36A124.83,124.83,0,0,1,371.17,280.28Z" style="fill: rgb(69, 90, 100); transform-origin: 359.825px 300.702px;" id="elbe11tkmsdps" class="animable"></path><path d="M392.77,284.32l-32.94,37.32,11.34-41.36A112.39,112.39,0,0,1,392.77,284.32Z" style="fill: rgb(69, 90, 100); transform-origin: 376.3px 300.96px;" id="eljnt1zli90er" class="animable"></path><path d="M424.48,302.63a31.36,31.36,0,0,1,7,12.48l-71.64,6.55h0Z" style="fill: rgb(69, 90, 100); transform-origin: 395.66px 312.145px;" id="eljg9uo8xzj5" class="animable"></path><path d="M431.49,315.11a24.52,24.52,0,0,1,0,13.11l-71.64-6.56Z" style="fill: rgb(69, 90, 100); transform-origin: 396.116px 321.665px;" id="el2y0cdgluv8b" class="animable"></path><path d="M431.49,328.22a31.4,31.4,0,0,1-7,12.47l-64.65-19Z" style="fill: rgb(69, 90, 100); transform-origin: 395.665px 331.19px;" id="elwynigepv17r" class="animable"></path><path d="M424.5,340.69a53.44,53.44,0,0,1-13.37,10.6l-51.31-29.63h0Z" style="fill: rgb(69, 90, 100); transform-origin: 392.16px 336.475px;" id="elwqpf5ynvmz" class="animable"></path><path d="M359.83,321.67,392.78,359a113.11,113.11,0,0,1-21.61,4l-11.35-41.36Z" style="fill: rgb(69, 90, 100); transform-origin: 376.3px 342.32px;" id="eldug8h4c10j" class="animable"></path><path d="M359.82,321.68,371.17,363a125.74,125.74,0,0,1-22.71,0Z" style="fill: rgb(69, 90, 100); transform-origin: 359.815px 342.597px;" id="elfadzhxqpmyv" class="animable"></path><path d="M359.81,321.67h0L348.46,363a113.26,113.26,0,0,1-21.61-4Z" style="fill: rgb(69, 90, 100); transform-origin: 343.33px 342.335px;" id="elljpbl3z3x4n" class="animable"></path><path d="M359.81,321.67l-33,37.33a85.25,85.25,0,0,1-18.35-7.71Z" style="fill: rgb(69, 90, 100); transform-origin: 334.135px 340.335px;" id="el6o0om37vn94" class="animable"></path><path d="M359.79,321.66l-64.65,19a31.16,31.16,0,0,1-7-12.47Z" style="fill: rgb(69, 90, 100); transform-origin: 323.965px 331.16px;" id="el6trcqmd2y45" class="animable"></path><path d="M359.79,321.66l-71.64,6.56a24.42,24.42,0,0,1,0-13.11Z" style="fill: rgb(69, 90, 100); transform-origin: 323.522px 321.665px;" id="elf3g2nufm0y7" class="animable"></path><path d="M359.79,321.65h0l-71.64-6.55a31.45,31.45,0,0,1,7-12.48Z" style="fill: rgb(69, 90, 100); transform-origin: 323.97px 312.135px;" id="el0qjgvazswkrj" class="animable"></path><path d="M308.51,292l51.28,29.61-64.64-19A53,53,0,0,1,308.51,292Z" style="fill: rgb(69, 90, 100); transform-origin: 327.47px 306.805px;" id="el9lunknv4gqa" class="animable"></path><path d="M411.13,292l-51.3,29.61h0l32.94-37.32A84.23,84.23,0,0,1,411.13,292Z" style="fill: rgb(69, 90, 100); transform-origin: 385.48px 302.95px;" id="ellcmfaa98fd9" class="animable"></path><path d="M411.13,292a52.94,52.94,0,0,1,13.35,10.59l-64.63,19Z" style="fill: rgb(69, 90, 100); transform-origin: 392.165px 306.795px;" id="el92pwafmu4dq" class="animable"></path><path d="M359.81,321.65h0L308.5,351.29a53.38,53.38,0,0,1-13.36-10.6l64.65-19Z" style="fill: rgb(69, 90, 100); transform-origin: 327.475px 336.47px;" id="elvfs6ysjtb1" class="animable"></path><path d="M326.87,284.32l32.94,37.32h0L308.51,292A84.23,84.23,0,0,1,326.87,284.32Z" style="fill: rgb(69, 90, 100); transform-origin: 334.16px 302.98px;" id="eluij4t6x9bk" class="animable"></path><path d="M359.83,321.67l51.3,29.62A84.83,84.83,0,0,1,392.78,359Z" style="fill: rgb(69, 90, 100); transform-origin: 385.48px 340.335px;" id="elwe6y1726vud" class="animable"></path><path d="M295.89,305.41v20.78a22,22,0,0,1-.8-5.83V305.41Z" style="fill: rgb(123, 104, 238); transform-origin: 295.49px 315.8px;" id="el96lgcagild" class="animable"></path><g id="elj3rqk4u0pp"><path d="M295.89,305.41v20.78a22,22,0,0,1-.8-5.83V305.41Z" style="opacity: 0.3; transform-origin: 295.49px 315.8px;" class="animable"></path></g><path d="M359.79,305.43l-63.9,5.84a21.88,21.88,0,0,1,0-11.69Z" style="fill: rgb(123, 104, 238); transform-origin: 327.442px 305.425px;" id="elfmhl4yqvfam" class="animable"></path><path d="M359.79,305.41h0l-63.9-5.85a28.07,28.07,0,0,1,6.25-11.13Z" style="fill: rgb(123, 104, 238); transform-origin: 327.84px 296.92px;" id="ellr5munl8yjm" class="animable"></path><path d="M314.05,279l45.74,26.41-57.65-17A47.41,47.41,0,0,1,314.05,279Z" style="fill: rgb(123, 104, 238); transform-origin: 330.965px 292.205px;" id="el59kqvee3kju" class="animable"></path><path d="M330.43,272.12l29.38,33.28h0L314.05,279A75.23,75.23,0,0,1,330.43,272.12Z" style="fill: rgb(123, 104, 238); transform-origin: 336.93px 288.76px;" id="elaxye1lzau95" class="animable"></path><path d="M349.69,268.52l10.12,36.88-29.38-33.28A99.82,99.82,0,0,1,349.69,268.52Z" style="fill: rgb(123, 104, 238); transform-origin: 345.12px 286.96px;" id="eljr1hbstrv59" class="animable"></path><path d="M370,268.52,359.83,305.4h0l-10.12-36.88A110.57,110.57,0,0,1,370,268.52Z" style="fill: rgb(123, 104, 238); transform-origin: 359.855px 286.727px;" id="elohpj3u0gw08" class="animable"></path><path d="M389.21,272.12,359.83,305.4,370,268.52A99.82,99.82,0,0,1,389.21,272.12Z" style="fill: rgb(123, 104, 238); transform-origin: 374.52px 286.96px;" id="el3jyda4fit4k" class="animable"></path><g id="el99ir3y274pi"><g style="opacity: 0.2; transform-origin: 342.152px 289.662px;" class="animable"><path d="M359.79,305.43l-63.9,5.84a21.88,21.88,0,0,1,0-11.69Z" style="fill: rgb(255, 255, 255); transform-origin: 327.442px 305.425px;" id="eluxjcsionb3" class="animable"></path><path d="M359.79,305.41h0l-63.9-5.85a28.07,28.07,0,0,1,6.25-11.13Z" style="fill: rgb(255, 255, 255); transform-origin: 327.84px 296.92px;" id="elqd0qmwqeg8p" class="animable"></path><path d="M314.05,279l45.74,26.41-57.65-17A47.41,47.41,0,0,1,314.05,279Z" style="fill: rgb(255, 255, 255); transform-origin: 330.965px 292.205px;" id="elo6o5n60gfn" class="animable"></path><path d="M330.43,272.12l29.38,33.28h0L314.05,279A75.23,75.23,0,0,1,330.43,272.12Z" style="fill: rgb(255, 255, 255); transform-origin: 336.93px 288.76px;" id="el135zva8noe4j" class="animable"></path><path d="M349.69,268.52l10.12,36.88-29.38-33.28A99.82,99.82,0,0,1,349.69,268.52Z" style="fill: rgb(255, 255, 255); transform-origin: 345.12px 286.96px;" id="elyk8mt6kbrdb" class="animable"></path><path d="M370,268.52,359.83,305.4h0l-10.12-36.88A110.57,110.57,0,0,1,370,268.52Z" style="fill: rgb(255, 255, 255); transform-origin: 359.855px 286.727px;" id="elav1djhaare" class="animable"></path><path d="M389.21,272.12,359.83,305.4,370,268.52A99.82,99.82,0,0,1,389.21,272.12Z" style="fill: rgb(255, 255, 255); transform-origin: 374.52px 286.96px;" id="elb92b2q4525u" class="animable"></path></g></g><path d="M414,315.39l-9.59,9-7.29,6.89-6.95,6.54-.93.87v14.93a75.42,75.42,0,0,0,16.38-6.87,47.69,47.69,0,0,0,11.92-9.47,27.77,27.77,0,0,0,6.23-11.11,22,22,0,0,0,.81-5.83V305.42Z" style="fill: rgb(123, 104, 238); transform-origin: 406.91px 329.52px;" id="el3mraqj2n9bv" class="animable"></path><g id="eliqxvqnlumnh"><path d="M414,315.39l-9.59,9-7.29,6.89-6.95,6.54-.93.87v14.93a75.42,75.42,0,0,0,16.38-6.87,47.69,47.69,0,0,0,11.92-9.47,27.77,27.77,0,0,0,6.23-11.11,22,22,0,0,0,.81-5.83V305.42Z" style="opacity: 0.3; transform-origin: 406.91px 329.52px;" class="animable"></path></g><path d="M417.5,288.45a28.2,28.2,0,0,1,6.25,11.13l-63.91,5.85h0Z" style="fill: rgb(123, 104, 238); transform-origin: 391.795px 296.94px;" id="elszx8sp4joxc" class="animable"></path><path d="M424.55,305.44a22.11,22.11,0,0,1-.81,5.84l-19.36-1.78-44.54-4.08,54.13-5,9.77-.89A22.16,22.16,0,0,1,424.55,305.44Z" style="fill: rgb(123, 104, 238); transform-origin: 392.195px 305.405px;" id="el5rw3rapc10n" class="animable"></path><path d="M423.74,311.28a27.84,27.84,0,0,1-6.23,11.11l-20.42-6-37.25-11,44.54,4.08Z" style="fill: rgb(123, 104, 238); transform-origin: 391.79px 313.89px;" id="elrp789j5oumi" class="animable"></path><path d="M417.51,322.39a47.69,47.69,0,0,1-11.92,9.47l-15.45-8.94-30.29-17.48v0l37.25,11Z" style="fill: rgb(123, 104, 238); transform-origin: 388.68px 318.65px;" id="elf90w0y17f5" class="animable"></path><path d="M405.59,279l-45.76,26.42h0l29.38-33.28A75.65,75.65,0,0,1,405.59,279Z" style="fill: rgb(123, 104, 238); transform-origin: 382.71px 288.78px;" id="elajjvs1xylw" class="animable"></path><path d="M405.59,279a47.59,47.59,0,0,1,11.91,9.45l-57.66,17Z" style="fill: rgb(123, 104, 238); transform-origin: 388.67px 292.225px;" id="eloyakdoaidre" class="animable"></path><path d="M405.59,331.86a75.4,75.4,0,0,1-16.38,6.86l-29.36-33.28,30.29,17.48Z" style="fill: rgb(123, 104, 238); transform-origin: 382.72px 322.08px;" id="el5wazhvxsmli" class="animable"></path><g id="el30sl4z6edfo"><g style="opacity: 0.2; transform-origin: 392.19px 305.43px;" class="animable"><path d="M417.5,288.45a28.2,28.2,0,0,1,6.25,11.13l-63.91,5.85h0Z" style="fill: rgb(255, 255, 255); transform-origin: 391.795px 296.94px;" id="elaqspa3y1osk" class="animable"></path><path d="M424.55,305.44a22.11,22.11,0,0,1-.81,5.84l-19.36-1.78-44.54-4.08,54.13-5,9.77-.89A22.16,22.16,0,0,1,424.55,305.44Z" style="fill: rgb(255, 255, 255); transform-origin: 392.195px 305.405px;" id="elxd5ahp1uu2m" class="animable"></path><path d="M423.74,311.28a27.84,27.84,0,0,1-6.23,11.11l-20.42-6-37.25-11,44.54,4.08Z" style="fill: rgb(255, 255, 255); transform-origin: 391.79px 313.89px;" id="eliha9ajcbaq" class="animable"></path><path d="M417.51,322.39a47.69,47.69,0,0,1-11.92,9.47l-15.45-8.94-30.29-17.48v0l37.25,11Z" style="fill: rgb(255, 255, 255); transform-origin: 388.68px 318.65px;" id="eluiu8qyhxmd" class="animable"></path><path d="M405.59,279l-45.76,26.42h0l29.38-33.28A75.65,75.65,0,0,1,405.59,279Z" style="fill: rgb(255, 255, 255); transform-origin: 382.71px 288.78px;" id="el0jqqbtagl24j" class="animable"></path><path d="M405.59,279a47.59,47.59,0,0,1,11.91,9.45l-57.66,17Z" style="fill: rgb(255, 255, 255); transform-origin: 388.67px 292.225px;" id="el5a9sbpory2" class="animable"></path><path d="M405.59,331.86a75.4,75.4,0,0,1-16.38,6.86l-29.36-33.28,30.29,17.48Z" style="fill: rgb(255, 255, 255); transform-origin: 382.72px 322.08px;" id="el24a0xiab1cs" class="animable"></path></g></g><polygon points="389.22 338.73 389.22 353.66 359.81 320.34 359.81 305.4 389.22 338.73" style="fill: rgb(38, 50, 56); transform-origin: 374.515px 329.53px;" id="elp4ueyfgal5" class="animable"></polygon><polygon points="359.81 320.34 295.89 326.21 295.89 311.27 359.81 305.4 359.81 320.34" style="fill: rgb(123, 104, 238); transform-origin: 327.85px 315.805px;" id="el6lzy04sopq" class="animable"></polygon><g id="el7qdwnq0yhld"><polygon points="359.81 320.34 295.89 326.21 295.89 311.27 359.81 305.4 359.81 320.34" style="opacity: 0.1; transform-origin: 327.85px 315.805px;" class="animable"></polygon></g><path d="M213,321.65a31.32,31.32,0,0,0-7-12.47,53.14,53.14,0,0,0-13.35-10.6,84.58,84.58,0,0,0-18.37-7.71,112.28,112.28,0,0,0-21.59-4,124.83,124.83,0,0,0-22.71,0,112.53,112.53,0,0,0-21.6,4A84.7,84.7,0,0,0,90,298.58a53,53,0,0,0-13.35,10.6,31.32,31.32,0,0,0-7,12.47,24.65,24.65,0,0,0,0,13.12,31.21,31.21,0,0,0,7,12.46A53,53,0,0,0,90,357.84a84.31,84.31,0,0,0,18.35,7.7,113.12,113.12,0,0,0,21.61,4,126.66,126.66,0,0,0,22.71,0,113.12,113.12,0,0,0,21.61-4,83.85,83.85,0,0,0,18.35-7.71h0A52.93,52.93,0,0,0,206,347.23a31.21,31.21,0,0,0,7-12.46A24.65,24.65,0,0,0,213,321.65Z" style="fill: rgb(55, 71, 79); transform-origin: 141.325px 328.201px;" id="elg5airwkx0cj" class="animable"></path><polygon points="68.75 321.64 213.88 321.64 213.88 329.04 68.75 328.63 68.75 321.64" style="fill: rgb(55, 71, 79); transform-origin: 141.315px 325.34px;" id="elqu01mlbaul" class="animable"></polygon><path d="M130,280.28l11.34,41.36-32.94-37.32A112.53,112.53,0,0,1,130,280.28Z" style="fill: rgb(69, 90, 100); transform-origin: 124.87px 300.96px;" id="elinnxujs2qpm" class="animable"></path><path d="M152.67,280.28l-11.34,41.36h0L130,280.28A124.83,124.83,0,0,1,152.67,280.28Z" style="fill: rgb(69, 90, 100); transform-origin: 141.335px 300.702px;" id="eljyyfnrkkj0q" class="animable"></path><path d="M174.26,284.32l-32.93,37.32,11.34-41.36A112.28,112.28,0,0,1,174.26,284.32Z" style="fill: rgb(69, 90, 100); transform-origin: 157.795px 300.96px;" id="elpgssup3wakp" class="animable"></path><path d="M206,302.63a31.36,31.36,0,0,1,7,12.48l-71.65,6.55h0Z" style="fill: rgb(69, 90, 100); transform-origin: 177.175px 312.145px;" id="elovblro0visi" class="animable"></path><path d="M213,315.11a24.62,24.62,0,0,1,0,13.11l-71.65-6.56Z" style="fill: rgb(69, 90, 100); transform-origin: 177.619px 321.665px;" id="eldzyxjps1e8p" class="animable"></path><path d="M213,328.22a31.31,31.31,0,0,1-7,12.47l-64.65-19Z" style="fill: rgb(69, 90, 100); transform-origin: 177.175px 331.19px;" id="el6sb0aas39f2" class="animable"></path><path d="M206,340.69a53.38,53.38,0,0,1-13.36,10.6l-51.32-29.63h0Z" style="fill: rgb(69, 90, 100); transform-origin: 173.66px 336.475px;" id="eljxbji28cb49" class="animable"></path><path d="M141.33,321.67,174.28,359a113.11,113.11,0,0,1-21.61,4l-11.36-41.36Z" style="fill: rgb(69, 90, 100); transform-origin: 157.795px 342.32px;" id="el016xowd473vel" class="animable"></path><path d="M141.31,321.68,152.67,363A125.74,125.74,0,0,1,130,363Z" style="fill: rgb(69, 90, 100); transform-origin: 141.335px 342.596px;" id="el0cyxvd2adpj" class="animable"></path><path d="M141.3,321.67h0L130,363a113.11,113.11,0,0,1-21.61-4Z" style="fill: rgb(69, 90, 100); transform-origin: 124.845px 342.335px;" id="el74dckydg4rc" class="animable"></path><path d="M141.3,321.67l-33,37.33A84.83,84.83,0,0,1,90,351.29Z" style="fill: rgb(69, 90, 100); transform-origin: 115.65px 340.335px;" id="eleu8we74f5jm" class="animable"></path><path d="M141.29,321.66l-64.65,19a31.31,31.31,0,0,1-7-12.47Z" style="fill: rgb(69, 90, 100); transform-origin: 105.465px 331.16px;" id="eliuxes4ivnp" class="animable"></path><path d="M141.29,321.66l-71.65,6.56a24.62,24.62,0,0,1,0-13.11Z" style="fill: rgb(69, 90, 100); transform-origin: 105.021px 321.665px;" id="elog7xalpm9rr" class="animable"></path><path d="M141.29,321.65h0l-71.65-6.55a31.36,31.36,0,0,1,7-12.48Z" style="fill: rgb(69, 90, 100); transform-origin: 105.465px 312.135px;" id="eludyw9yem928" class="animable"></path><path d="M90,292l51.29,29.61-64.64-19A52.94,52.94,0,0,1,90,292Z" style="fill: rgb(69, 90, 100); transform-origin: 108.97px 306.805px;" id="ellgz1gnhfyri" class="animable"></path><path d="M192.63,292l-51.3,29.61h0l32.93-37.32A84.11,84.11,0,0,1,192.63,292Z" style="fill: rgb(69, 90, 100); transform-origin: 166.98px 302.95px;" id="el17qoldxrhwp" class="animable"></path><path d="M192.63,292A53.12,53.12,0,0,1,206,302.63l-64.64,19Z" style="fill: rgb(69, 90, 100); transform-origin: 173.68px 306.815px;" id="eluselg2dz13" class="animable"></path><path d="M141.3,321.65h0L90,351.29a53.2,53.2,0,0,1-13.36-10.6l64.65-19Z" style="fill: rgb(69, 90, 100); transform-origin: 108.97px 336.47px;" id="eld40zact4e0h" class="animable"></path><path d="M108.36,284.32l32.94,37.32h0L90,292A84.23,84.23,0,0,1,108.36,284.32Z" style="fill: rgb(69, 90, 100); transform-origin: 115.65px 302.98px;" id="elr2rj3homwok" class="animable"></path><path d="M141.33,321.67l51.3,29.62A84.83,84.83,0,0,1,174.28,359Z" style="fill: rgb(69, 90, 100); transform-origin: 166.98px 340.335px;" id="eltaqo7egtfw" class="animable"></path><path d="M160.61,296l8.27-9.38c0-11-13.44-11.27-19.38-11.8s-16.13-3.94-16.13,8.58l2.84,10.36A79,79,0,0,1,160.61,296Z" style="fill: rgb(123, 104, 238); transform-origin: 151.125px 285px;" id="el4yrmjsf00x8" class="animable"></path><g id="el2max804d2gi"><path d="M160.61,296l8.27-9.38c0-11-13.44-11.27-19.38-11.8s-16.13-3.94-16.13,8.58l2.84,10.36A79,79,0,0,1,160.61,296Z" style="fill: rgb(255, 255, 255); opacity: 0.6; transform-origin: 151.125px 285px;" class="animable"></path></g><path d="M160.61,281.27l8.27-9.37a109.08,109.08,0,0,0-35.51-3.22L136.21,279A79,79,0,0,1,160.61,281.27Z" style="fill: rgb(123, 104, 238); transform-origin: 151.125px 274.827px;" id="eln474kb90k4" class="animable"></path><g id="el4g6421yk8za"><path d="M160.61,281.27l8.27-9.37a109.08,109.08,0,0,0-35.51-3.22L136.21,279A79,79,0,0,1,160.61,281.27Z" style="fill: rgb(255, 255, 255); opacity: 0.8; transform-origin: 151.125px 274.827px;" class="animable"></path></g><polygon points="136.21 279.04 136.21 293.78 133.37 283.42 133.37 268.68 136.21 279.04" style="fill: rgb(123, 104, 238); transform-origin: 134.79px 281.23px;" id="eluod5rbmhi2q" class="animable"></polygon><polygon points="168.88 271.9 160.61 281.27 160.61 296.02 168.88 286.64 168.88 271.9" style="fill: rgb(123, 104, 238); transform-origin: 164.745px 283.96px;" id="el3pb3193rbvk" class="animable"></polygon><g id="elecyrld7646"><g style="opacity: 0.6; transform-origin: 151.125px 282.35px;" class="animable"><polygon points="136.21 279.04 136.21 293.78 133.37 283.42 133.37 268.68 136.21 279.04" style="fill: rgb(255, 255, 255); transform-origin: 134.79px 281.23px;" id="elc1au019uj09" class="animable"></polygon><polygon points="168.88 271.9 160.61 281.27 160.61 296.02 168.88 286.64 168.88 271.9" style="fill: rgb(255, 255, 255); transform-origin: 164.745px 283.96px;" id="el2zangu53phh" class="animable"></polygon></g></g><path d="M164.65,282.46V297.2a54.21,54.21,0,0,1,9.94,4.35,35.2,35.2,0,0,1,7.53,5.74l16.22-4.77a49.06,49.06,0,0,0-10.91-8.38C183,291.6,178.26,281.3,164.65,282.46Z" style="fill: rgb(123, 104, 238); transform-origin: 181.495px 294.83px;" id="eluak7f872t8r" class="animable"></path><g id="el2jxjxxjbdfn"><path d="M164.65,282.46V297.2a54.21,54.21,0,0,1,9.94,4.35,35.2,35.2,0,0,1,7.53,5.74l16.22-4.77a49.06,49.06,0,0,0-10.91-8.38C183,291.6,178.26,281.3,164.65,282.46Z" style="opacity: 0.6; transform-origin: 181.495px 294.83px;" class="animable"></path></g><path d="M172.92,273.1l-8.27,9.36a52.88,52.88,0,0,1,9.94,4.35,35.2,35.2,0,0,1,7.53,5.74l16.22-4.77a48.47,48.47,0,0,0-10.91-8.38A73.94,73.94,0,0,0,172.92,273.1Z" style="fill: rgb(123, 104, 238); transform-origin: 181.495px 282.825px;" id="el7o69ojxt5al" class="animable"></path><g id="elkq6pgr05ywd"><path d="M172.92,273.1l-8.27,9.36a52.88,52.88,0,0,1,9.94,4.35,35.2,35.2,0,0,1,7.53,5.74l16.22-4.77a48.47,48.47,0,0,0-10.91-8.38A73.94,73.94,0,0,0,172.92,273.1Z" style="opacity: 0.3; transform-origin: 181.495px 282.825px;" class="animable"></path></g><polygon points="182.12 292.55 198.34 287.77 198.34 302.52 182.12 307.29 182.12 292.55" style="fill: rgb(123, 104, 238); transform-origin: 190.23px 297.53px;" id="elynncl6yjtwr" class="animable"></polygon><g id="elas3mbvz2jpr"><polygon points="182.12 292.55 198.34 287.77 198.34 302.52 182.12 307.29 182.12 292.55" style="opacity: 0.6; transform-origin: 190.23px 297.53px;" class="animable"></polygon></g><path d="M206.48,305.63H201c-.2-.26-.37-.52-.57-.78l-16.24-10v14.75c3.46,4.45,4.77,9.31,3.87,14.08L206,325.35a22.28,22.28,0,0,0,.45-4.52h0Z" style="fill: rgb(123, 104, 238); transform-origin: 195.335px 310.1px;" id="el4zaxevh3ijx" class="animable"></path><g id="elt5vg5ljur7i"><path d="M206.48,305.63H201c-.2-.26-.37-.52-.57-.78l-16.24-10v14.75c3.46,4.45,4.77,9.31,3.87,14.08L206,325.35a22.28,22.28,0,0,0,.45-4.52h0Z" style="opacity: 0.6; transform-origin: 195.335px 310.1px;" class="animable"></path></g><path d="M188.05,309,206,310.61c1.46-6.93-.39-14.06-5.58-20.5l-16.24,4.77C187.64,299.33,189,304.2,188.05,309Z" style="fill: rgb(123, 104, 238); transform-origin: 195.331px 300.36px;" id="elkubto4r2pyc" class="animable"></path><g id="elj3omdnpk61l"><path d="M188.05,309,206,310.61c1.46-6.93-.39-14.06-5.58-20.5l-16.24,4.77C187.64,299.33,189,304.2,188.05,309Z" style="opacity: 0.3; transform-origin: 195.331px 300.36px;" class="animable"></path></g><polygon points="206 310.61 206 325.36 188.05 323.71 188.05 308.97 206 310.61" style="fill: rgb(123, 104, 238); transform-origin: 197.025px 317.165px;" id="elfo7k7w1hbs6" class="animable"></polygon><g id="el1vn5nltogr5"><polygon points="206 310.61 206 325.36 188.05 323.71 188.05 308.97 206 310.61" style="opacity: 0.6; transform-origin: 197.025px 317.165px;" class="animable"></polygon></g><path d="M131.73,294.2V279.45c-10-4.61-28.62.07-34.86,13.8l12.84,7.42A64.82,64.82,0,0,1,131.73,294.2Z" style="fill: rgb(123, 104, 238); transform-origin: 114.3px 289.2px;" id="els94qi4j5e0j" class="animable"></path><g id="ellc9qo0vjpvi"><path d="M131.73,294.2V279.45c-10-4.61-28.62.07-34.86,13.8l12.84,7.42A64.82,64.82,0,0,1,131.73,294.2Z" style="opacity: 0.3; transform-origin: 114.3px 289.2px;" class="animable"></path></g><path d="M131.73,279.45l-2.85-10.39c-12.09,1.36-23.16,4.69-32,9.45l12.84,7.41A64.82,64.82,0,0,1,131.73,279.45Z" style="fill: rgb(123, 104, 238); transform-origin: 114.305px 277.49px;" id="elsmru0ygtzqn" class="animable"></path><g id="elwmicyecuqp"><path d="M131.73,279.45l-2.85-10.39c-12.09,1.36-23.16,4.69-32,9.45l12.84,7.41A64.82,64.82,0,0,1,131.73,279.45Z" style="opacity: 0.1; transform-origin: 114.305px 277.49px;" class="animable"></path></g><polygon points="109.71 285.92 109.71 300.67 96.87 293.25 96.87 278.51 109.71 285.92" style="fill: rgb(38, 50, 56); transform-origin: 103.29px 289.59px;" id="elkvjmp5lx2q" class="animable"></polygon><path d="M96.28,287.78l-2.64,7.31c-8.63,5.34-14.08,11.77-16.32,18.5l18,1.64c1.65-4.61,5.41-9,11.23-12.7V287.78Z" style="fill: rgb(123, 104, 238); transform-origin: 91.935px 301.505px;" id="elg6id30b7sal" class="animable"></path><g id="el4fn9jxwv58y"><path d="M96.28,287.78l-2.64,7.31c-8.63,5.34-14.08,11.77-16.32,18.5l18,1.64c1.65-4.61,5.41-9,11.23-12.7V287.78Z" style="opacity: 0.3; transform-origin: 91.935px 301.505px;" class="animable"></path></g><path d="M106.51,287.78l-12.87-7.43c-8.63,5.33-14.08,11.77-16.32,18.49l18,1.65C96.93,295.88,100.69,291.48,106.51,287.78Z" style="fill: rgb(123, 104, 238); transform-origin: 91.915px 290.42px;" id="el4sgok0kgxnr" class="animable"></path><g id="el8o56vbqz0t"><path d="M106.51,287.78l-12.87-7.43c-8.63,5.33-14.08,11.77-16.32,18.49l18,1.65C96.93,295.88,100.69,291.48,106.51,287.78Z" style="opacity: 0.1; transform-origin: 91.915px 290.42px;" class="animable"></path></g><polygon points="77.32 298.84 77.32 313.59 95.28 315.23 95.28 300.49 77.32 298.84" style="fill: rgb(38, 50, 56); transform-origin: 86.3px 307.035px;" id="elirv28xxf44" class="animable"></polygon><path d="M94.57,317.82V303.07l-5.34-.48L76.15,306v14.73h0a25.16,25.16,0,0,0,6,15.95l16.24-4.77C95,327.46,93.68,322.59,94.57,317.82Z" style="fill: rgb(123, 104, 238); transform-origin: 87.27px 319.635px;" id="eli9wpq8wqveb" class="animable"></path><g id="eli665q32l1ln"><path d="M94.57,317.82V303.07l-5.34-.48L76.15,306v14.73h0a25.16,25.16,0,0,0,6,15.95l16.24-4.77C95,327.46,93.68,322.59,94.57,317.82Z" style="opacity: 0.3; transform-origin: 87.27px 319.635px;" class="animable"></path></g><polygon points="82.21 321.94 98.45 317.16 98.45 331.91 82.21 336.68 82.21 321.94" style="fill: rgb(38, 50, 56); transform-origin: 90.33px 326.92px;" id="el05frclly3cci" class="animable"></polygon><path d="M94.58,303.07l-18-1.64c-1.46,6.94.39,14.06,5.58,20.51l16.24-4.78C95,312.71,93.68,307.84,94.58,303.07Z" style="fill: rgb(123, 104, 238); transform-origin: 87.2487px 311.685px;" id="elm0gg6g73j3" class="animable"></path><g id="elrng6qvrkbm"><path d="M94.58,303.07l-18-1.64c-1.46,6.94.39,14.06,5.58,20.51l16.24-4.78C95,312.71,93.68,307.84,94.58,303.07Z" style="opacity: 0.1; transform-origin: 87.2487px 311.685px;" class="animable"></path></g><path d="M113.79,336.66c-7.61-4.39-11.41-10.14-11.41-15.89V306h77.87v14.74c0,5.76-3.8,11.51-11.41,15.9C153.64,345.44,129,345.44,113.79,336.66Z" style="fill: rgb(55, 71, 79); transform-origin: 141.315px 324.621px;" id="elpfuyiufuvif" class="animable"></path><ellipse cx="141.32" cy="306.02" rx="38.93" ry="22.48" style="fill: rgb(69, 90, 100); transform-origin: 141.32px 306.02px;" id="elr7irqdk454" class="animable"></ellipse><path d="M109.71,340.88V339L84.28,324.27V339a48.84,48.84,0,0,0,10.92,8.38,73.94,73.94,0,0,0,14.51,6.3l8.26-9.36A56,56,0,0,1,109.71,340.88Z" style="fill: rgb(123, 104, 238); transform-origin: 101.125px 338.975px;" id="elq16cnnqd8m" class="animable"></path><g id="elt1tx9ibdi8a"><path d="M109.71,340.88V339L84.28,324.27V339a48.84,48.84,0,0,0,10.92,8.38,73.94,73.94,0,0,0,14.51,6.3l8.26-9.36A56,56,0,0,1,109.71,340.88Z" style="opacity: 0.3; transform-origin: 101.125px 338.975px;" class="animable"></path></g><path d="M108,325.23a35.17,35.17,0,0,1-7.54-5.73l-16.22,4.77a49.13,49.13,0,0,0,10.92,8.38,74.54,74.54,0,0,0,14.51,6.3l8.26-9.37A52.78,52.78,0,0,1,108,325.23Z" style="fill: rgb(123, 104, 238); transform-origin: 101.085px 329.225px;" id="ela30m9q7bhu6" class="animable"></path><g id="elxtlk3dlhlfo"><path d="M108,325.23a35.17,35.17,0,0,1-7.54-5.73l-16.22,4.77a49.13,49.13,0,0,0,10.92,8.38,74.54,74.54,0,0,0,14.51,6.3l8.26-9.37A52.78,52.78,0,0,1,108,325.23Z" style="opacity: 0.1; transform-origin: 101.085px 329.225px;" class="animable"></path></g><polygon points="109.71 353.69 109.71 338.95 117.97 329.58 117.97 344.33 109.71 353.69" style="fill: rgb(38, 50, 56); transform-origin: 113.84px 341.635px;" id="el1t4wcw23ryp" class="animable"></polygon><path d="M113.75,340.14v14.75a109.08,109.08,0,0,0,35.51,3.22V343.37Z" style="fill: rgb(123, 104, 238); transform-origin: 131.505px 349.273px;" id="el3din05ncuko" class="animable"></path><g id="elsv3q99dmx5r"><path d="M113.75,340.14v14.75a109.08,109.08,0,0,0,35.51,3.22V343.37Z" style="opacity: 0.1; transform-origin: 131.505px 349.273px;" class="animable"></path></g><path d="M122,330.77l-8.27,9.37a109.35,109.35,0,0,0,35.51,3.23L146.42,333A79,79,0,0,1,122,330.77Z" style="fill: rgb(123, 104, 238); transform-origin: 131.485px 337.216px;" id="elqtq5ihw5ils" class="animable"></path><g id="elptpnrv9xvm"><path d="M122,330.77l-8.27,9.37a109.35,109.35,0,0,0,35.51,3.23L146.42,333A79,79,0,0,1,122,330.77Z" style="fill: rgb(255, 255, 255); opacity: 0.2; transform-origin: 131.485px 337.216px;" class="animable"></path></g><path d="M176.12,339,189,346.44c8.63-5.33,14.08-11.77,16.32-18.5V313.2l-18,13.1C185.7,330.91,181.94,335.31,176.12,339Z" style="fill: rgb(123, 104, 238); transform-origin: 190.72px 329.82px;" id="eldxo94iqb7v" class="animable"></path><g id="el5vy50bf6nqg"><path d="M176.12,339,189,346.44c8.63-5.33,14.08-11.77,16.32-18.5V313.2l-18,13.1C185.7,330.91,181.94,335.31,176.12,339Z" style="opacity: 0.1; transform-origin: 190.72px 329.82px;" class="animable"></path></g><path d="M176.12,324.26,189,331.7c8.63-5.34,14.08-11.77,16.32-18.5l-18-1.64C185.7,316.17,181.94,320.56,176.12,324.26Z" style="fill: rgb(123, 104, 238); transform-origin: 190.72px 321.63px;" id="el71ruucaiyuh" class="animable"></path><g id="elns70v4cb25c"><path d="M176.12,324.26,189,331.7c8.63-5.34,14.08-11.77,16.32-18.5l-18-1.64C185.7,316.17,181.94,320.56,176.12,324.26Z" style="fill: rgb(255, 255, 255); opacity: 0.2; transform-origin: 190.72px 321.63px;" class="animable"></path></g><polygon points="188.99 331.7 188.99 346.44 176.12 339.01 176.12 324.26 188.99 331.7" style="fill: rgb(123, 104, 238); transform-origin: 182.555px 335.35px;" id="elk82kgiqqt8" class="animable"></polygon><g id="elcl3rey1d3ia"><polygon points="188.99 331.7 188.99 346.44 176.12 339.01 176.12 324.26 188.99 331.7" style="opacity: 0.3; transform-origin: 182.555px 335.35px;" class="animable"></polygon></g><path d="M153.75,343v4c-.95.15-1.89.28-2.85.39l2.85,10.38c11.65-1.3,22.79-4.45,32-9.43V333.55Z" style="fill: rgb(123, 104, 238); transform-origin: 168.325px 345.66px;" id="els9g1uq4beak" class="animable"></path><g id="el3689a0yeiq5"><path d="M153.75,343v4c-.95.15-1.89.28-2.85.39l2.85,10.38c11.65-1.3,22.79-4.45,32-9.43V333.55Z" style="opacity: 0.1; transform-origin: 168.325px 345.66px;" class="animable"></path></g><path d="M150.9,332.6,153.75,343c11.65-1.3,22.79-4.44,32-9.42l-12.87-7.44A64.1,64.1,0,0,1,150.9,332.6Z" style="fill: rgb(123, 104, 238); transform-origin: 168.325px 334.57px;" id="elmv3vuvs8xg" class="animable"></path><g id="elc23spxzqyf"><path d="M150.9,332.6,153.75,343c11.65-1.3,22.79-4.44,32-9.42l-12.87-7.44A64.1,64.1,0,0,1,150.9,332.6Z" style="fill: rgb(255, 255, 255); opacity: 0.2; transform-origin: 168.325px 334.57px;" class="animable"></path></g><polygon points="153.75 342.97 153.75 357.71 150.9 347.35 150.9 332.6 153.75 342.97" style="fill: rgb(123, 104, 238); transform-origin: 152.325px 345.155px;" id="elfjtt8iu5fjk" class="animable"></polygon><g id="elr7nkdupc8o"><polygon points="153.75 342.97 153.75 357.71 150.9 347.35 150.9 332.6 153.75 342.97" style="opacity: 0.3; transform-origin: 152.325px 345.155px;" class="animable"></polygon></g></g><g id="freepik--speech-bubbles--inject-70" class="animable" style="transform-origin: 251.78px 201.459px;"><path d="M403.31,244.34a4.16,4.16,0,0,0-1.87-3.25l-27.08-15.63c-1-.6-1.87-.11-1.87,1.09v26.17a4.14,4.14,0,0,0,1.87,3.25l11.34,6.54L389.28,277a1,1,0,0,0,2,.09l3.28-9.47,6.93,4c1,.6,1.87.11,1.87-1.08Z" style="fill: rgb(123, 104, 238); transform-origin: 387.925px 251.625px;" id="el10y2qjm41y1" class="animable"></path><g id="elyd0eewadd9"><path d="M403.31,244.34a4.16,4.16,0,0,0-1.87-3.25l-27.08-15.63c-1-.6-1.87-.11-1.87,1.09v26.17a4.14,4.14,0,0,0,1.87,3.25l11.34,6.54L389.28,277a1,1,0,0,0,2,.09l3.28-9.47,6.93,4c1,.6,1.87.11,1.87-1.08Z" style="fill: rgb(255, 255, 255); opacity: 0.5; transform-origin: 387.925px 251.625px;" class="animable"></path></g><path d="M382.75,237.38a7.54,7.54,0,0,1,1.52,1.14,8.14,8.14,0,0,1,1.09,1.31,6.45,6.45,0,0,1,.67,1.34,5.14,5.14,0,0,1,.27,1.24c0,.43.05.88.05,1.35s0,.9-.05,1.3a2.3,2.3,0,0,1-.27.92,1.29,1.29,0,0,1-.67.57,2.06,2.06,0,0,1-1.09,0,5,5,0,0,1-1.52-.63,7.59,7.59,0,0,1-1.53-1.13,7.11,7.11,0,0,1-1.08-1.29,5.73,5.73,0,0,1-.95-2.59c0-.43,0-.88,0-1.35s0-.9,0-1.29a2.47,2.47,0,0,1,.28-.93,1.22,1.22,0,0,1,.67-.57,2.11,2.11,0,0,1,1.08-.05A4.75,4.75,0,0,1,382.75,237.38Zm9.56,6.09a.68.68,0,0,1,.35-.13,1.06,1.06,0,0,1,.51.17l1.43.83a1.37,1.37,0,0,1,.42.37.78.78,0,0,1,.15.44.44.44,0,0,1,0,.1.36.36,0,0,1-.07.1l-11.78,8.7a.74.74,0,0,1-.35.14,1,1,0,0,1-.51-.18l-1.43-.82a1.3,1.3,0,0,1-.42-.38.76.76,0,0,1-.16-.43.26.26,0,0,1,0-.11.23.23,0,0,1,.07-.1Zm-8.3,0a2.29,2.29,0,0,0,0-.44v-1.29a2.74,2.74,0,0,0,0-.47,2.53,2.53,0,0,0-.31-1,2.41,2.41,0,0,0-.95-.88c-.46-.27-.78-.34-1-.22a.83.83,0,0,0-.31.63c0,.09,0,.23,0,.44s0,.41,0,.63,0,.44,0,.65,0,.37,0,.48a2.71,2.71,0,0,0,.31,1,2.44,2.44,0,0,0,1,.88c.46.27.78.34.95.22A.8.8,0,0,0,384,243.5Zm9.06,8.21a7.62,7.62,0,0,1,1.53,1.14,8,8,0,0,1,1.08,1.31,5.6,5.6,0,0,1,.67,1.34,5.73,5.73,0,0,1,.28,1.24c0,.43,0,.88,0,1.35s0,.9,0,1.3a2.42,2.42,0,0,1-.28.92,1.14,1.14,0,0,1-.67.57,1.92,1.92,0,0,1-1.08,0,5.06,5.06,0,0,1-1.53-.63,7.51,7.51,0,0,1-1.52-1.13,7.62,7.62,0,0,1-1.09-1.29,6.21,6.21,0,0,1-.67-1.34,5.25,5.25,0,0,1-.27-1.24c0-.44,0-.89,0-1.36s0-.9,0-1.29a2.3,2.3,0,0,1,.27-.93,1.25,1.25,0,0,1,.67-.57,2.28,2.28,0,0,1,1.09,0A4.71,4.71,0,0,1,393.07,251.71Zm1.27,6.12a4,4,0,0,0,0-.44V256.1c0-.2,0-.36,0-.46a2.9,2.9,0,0,0-.31-1,2.52,2.52,0,0,0-1-.88c-.46-.27-.78-.34-.95-.22a.83.83,0,0,0-.31.63,3.16,3.16,0,0,0,0,.44c0,.2,0,.41,0,.63s0,.44,0,.66a3.93,3.93,0,0,0,0,.47,2.48,2.48,0,0,0,.31,1,2.34,2.34,0,0,0,.95.88c.46.27.78.34,1,.22A.87.87,0,0,0,394.34,257.83Z" style="fill: rgb(250, 250, 250); transform-origin: 387.91px 248.8px;" id="eltrm5fp5x2t9" class="animable"></path><path d="M286.16,144a4.17,4.17,0,0,0-1.87-3.25l-27.08-15.62c-1-.6-1.87-.12-1.87,1.08v26.17a4.17,4.17,0,0,0,1.87,3.26l11.34,6.54,3.58,14.46a1,1,0,0,0,1.95.09l3.28-9.47,6.93,4c1,.6,1.87.12,1.87-1.08Z" style="fill: rgb(123, 104, 238); transform-origin: 270.75px 151.17px;" id="elc3wqgx5u2nd" class="animable"></path><g id="elm0sua2dcfig"><path d="M286.16,144a4.17,4.17,0,0,0-1.87-3.25l-27.08-15.62c-1-.6-1.87-.12-1.87,1.08v26.17a4.17,4.17,0,0,0,1.87,3.26l11.34,6.54,3.58,14.46a1,1,0,0,0,1.95.09l3.28-9.47,6.93,4c1,.6,1.87.12,1.87-1.08Z" style="fill: rgb(255, 255, 255); opacity: 0.5; transform-origin: 270.75px 151.17px;" class="animable"></path></g><path d="M265.6,137.08a7.54,7.54,0,0,1,1.52,1.14,8.6,8.6,0,0,1,1.09,1.31,6,6,0,0,1,.67,1.34,5.14,5.14,0,0,1,.27,1.24c0,.43.05.88.05,1.35s0,.9-.05,1.3a2.3,2.3,0,0,1-.27.93,1.2,1.2,0,0,1-.67.56,2.05,2.05,0,0,1-1.09.05,4.83,4.83,0,0,1-1.52-.64,7.23,7.23,0,0,1-1.53-1.13,7.11,7.11,0,0,1-1.08-1.29,5.6,5.6,0,0,1-.67-1.34,5.73,5.73,0,0,1-.28-1.24c0-.44,0-.89,0-1.35s0-.91,0-1.3a2.47,2.47,0,0,1,.28-.93,1.22,1.22,0,0,1,.67-.57,2.23,2.23,0,0,1,1.08,0A4.75,4.75,0,0,1,265.6,137.08Zm9.56,6.09a.79.79,0,0,1,.35-.13,1,1,0,0,1,.51.18l1.43.82a1.51,1.51,0,0,1,.42.37.8.8,0,0,1,.15.44.52.52,0,0,1,0,.11.61.61,0,0,1-.07.1l-11.78,8.7a.79.79,0,0,1-.35.13,1,1,0,0,1-.51-.18l-1.43-.82a1.27,1.27,0,0,1-.42-.37.8.8,0,0,1-.15-.44.18.18,0,0,1,0-.1.26.26,0,0,1,.07-.11Zm-8.3,0a2.22,2.22,0,0,0,0-.44v-1.29a2.61,2.61,0,0,0,0-.46,2.43,2.43,0,0,0-.31-1,2.36,2.36,0,0,0-.95-.89c-.46-.26-.78-.34-1-.21a.87.87,0,0,0-.31.63c0,.08,0,.23,0,.43s0,.41,0,.64,0,.44,0,.65,0,.37,0,.47a2.78,2.78,0,0,0,.31,1,2.44,2.44,0,0,0,1,.88c.46.27.78.34.95.22A.8.8,0,0,0,266.86,143.2Zm9.06,8.21a7.29,7.29,0,0,1,1.53,1.15,7.52,7.52,0,0,1,1.08,1.3,5.78,5.78,0,0,1,.67,1.34,5.86,5.86,0,0,1,.28,1.24c0,.44,0,.89,0,1.36s0,.9,0,1.29a2.47,2.47,0,0,1-.28.93,1.22,1.22,0,0,1-.67.57,2,2,0,0,1-1.08,0,5.06,5.06,0,0,1-1.53-.63,8.23,8.23,0,0,1-1.52-1.13,8.09,8.09,0,0,1-1.09-1.3,6.45,6.45,0,0,1-.67-1.34,5.14,5.14,0,0,1-.27-1.24c0-.43-.05-.88-.05-1.35s0-.9.05-1.3a2.34,2.34,0,0,1,.27-.93,1.27,1.27,0,0,1,.67-.56,2.15,2.15,0,0,1,1.09-.06A4.86,4.86,0,0,1,275.92,151.41Zm1.27,6.12a4,4,0,0,0,0-.44V155.8c0-.2,0-.36,0-.46a2.6,2.6,0,0,0-.31-1,2.46,2.46,0,0,0-1-.89c-.46-.26-.78-.34-.95-.21a.8.8,0,0,0-.31.63,2.83,2.83,0,0,0,0,.43c0,.2,0,.41,0,.64s0,.44,0,.65a3.73,3.73,0,0,0,0,.47,2.43,2.43,0,0,0,.31,1,2.36,2.36,0,0,0,.95.89q.69.39,1,.21A.83.83,0,0,0,277.19,157.53Z" style="fill: rgb(250, 250, 250); transform-origin: 270.76px 148.539px;" id="elvfmn5f873f" class="animable"></path><path d="M100.24,243.53a4.16,4.16,0,0,1,1.87-3.25l27.08-15.63c1-.6,1.87-.11,1.87,1.09v26.17a4.14,4.14,0,0,1-1.87,3.25l-11.34,6.54-3.58,14.47a1,1,0,0,1-2,.09L109,266.79l-6.93,4c-1,.6-1.87.11-1.87-1.08Z" style="fill: rgb(123, 104, 238); transform-origin: 115.63px 250.805px;" id="el099o00ajll76" class="animable"></path><g id="elgxc1essyju7"><g style="opacity: 0.5; transform-origin: 115.63px 250.805px;" class="animable"><path d="M100.24,243.53a4.16,4.16,0,0,1,1.87-3.25l27.08-15.63c1-.6,1.87-.11,1.87,1.09v26.17a4.14,4.14,0,0,1-1.87,3.25l-11.34,6.54-3.58,14.47a1,1,0,0,1-2,.09L109,266.79l-6.93,4c-1,.6-1.87.11-1.87-1.08Z" style="fill: rgb(255, 255, 255); transform-origin: 115.63px 250.805px;" id="el9mofzyn3d4u" class="animable"></path></g></g><path d="M109.7,241.58a5.52,5.52,0,0,1,1.76-.71,2.58,2.58,0,0,1,1.26.06,1.43,1.43,0,0,1,.77.66,2.62,2.62,0,0,1,.31,1.07q.06.69.06,1.5t-.06,1.56a6,6,0,0,1-.31,1.44,6.93,6.93,0,0,1-.77,1.54,8.65,8.65,0,0,1-1.26,1.5,9.06,9.06,0,0,1-1.76,1.31,6.09,6.09,0,0,1-1.77.73,2.44,2.44,0,0,1-1.25-.05,1.43,1.43,0,0,1-.77-.66,2.63,2.63,0,0,1-.32-1.07c0-.46,0-1,0-1.5s0-1.06,0-1.56a6.08,6.08,0,0,1,.32-1.44,6.52,6.52,0,0,1,.77-1.54,9.53,9.53,0,0,1,1.25-1.51A9.1,9.1,0,0,1,109.7,241.58Zm11-5.71a3.91,3.91,0,0,1,.4-.62,2.27,2.27,0,0,1,.59-.48l1.66-1a.65.65,0,0,1,.48-.12c.12,0,.18.13.18.29a.61.61,0,0,1,0,.16l-.08.21-13.62,25.78a3.79,3.79,0,0,1-.4.61,2.12,2.12,0,0,1-.59.48l-1.65,1a.68.68,0,0,1-.49.12c-.12,0-.18-.13-.18-.29a.61.61,0,0,1,0-.16l.08-.21ZM111.16,247a3.57,3.57,0,0,0,0-.54v-1.49a3,3,0,0,0,0-.51,1,1,0,0,0-.36-.73c-.2-.14-.57,0-1.1.25a2.67,2.67,0,0,0-1.46,2.17,3.45,3.45,0,0,0,0,.55c0,.24,0,.49,0,.75s0,.5,0,.74a2.67,2.67,0,0,0,0,.5.92.92,0,0,0,.36.73c.2.14.56.05,1.1-.25a2.76,2.76,0,0,0,1.1-1A3,3,0,0,0,111.16,247Zm10.47-2.6a5.76,5.76,0,0,1,1.77-.72,2.54,2.54,0,0,1,1.25.06,1.43,1.43,0,0,1,.77.66,2.63,2.63,0,0,1,.32,1.07c0,.46.05,1,.05,1.5s0,1.06-.05,1.56a6,6,0,0,1-.32,1.44,6.77,6.77,0,0,1-.77,1.55,8.82,8.82,0,0,1-3,2.8,5.88,5.88,0,0,1-1.76.73,2.37,2.37,0,0,1-1.26-.05,1.39,1.39,0,0,1-.77-.66,2.58,2.58,0,0,1-.31-1.07c0-.45-.06-1-.06-1.49s0-1.07.06-1.57a5.86,5.86,0,0,1,.31-1.43,7,7,0,0,1,.77-1.55,9.09,9.09,0,0,1,1.26-1.51A8.34,8.34,0,0,1,121.63,244.37Zm1.46,5.38a3.57,3.57,0,0,0,0-.54v-1.48a3,3,0,0,0,0-.51.91.91,0,0,0-.36-.73c-.2-.14-.56-.06-1.1.25a2.82,2.82,0,0,0-1.1,1,3.14,3.14,0,0,0-.36,1.15,5.05,5.05,0,0,0,0,.54c0,.25,0,.5,0,.75s0,.51,0,.74a4,4,0,0,0,0,.5,1,1,0,0,0,.36.73c.2.14.57.06,1.1-.25a2.75,2.75,0,0,0,1.1-1A2.8,2.8,0,0,0,123.09,249.75Z" style="fill: rgb(250, 250, 250); transform-origin: 115.69px 247.975px;" id="eljqwsanrq37g" class="animable"></path></g><defs>     <filter id="active" height="200%">         <feMorphology in="SourceAlpha" result="DILATED" operator="dilate" radius="2"></feMorphology>                <feFlood flood-color="#32DFEC" flood-opacity="1" result="PINK"></feFlood>        <feComposite in="PINK" in2="DILATED" operator="in" result="OUTLINE"></feComposite>        <feMerge>            <feMergeNode in="OUTLINE"></feMergeNode>            <feMergeNode in="SourceGraphic"></feMergeNode>        </feMerge>    </filter>    <filter id="hover" height="200%">        <feMorphology in="SourceAlpha" result="DILATED" operator="dilate" radius="2"></feMorphology>                <feFlood flood-color="#ff0000" flood-opacity="0.5" result="PINK"></feFlood>        <feComposite in="PINK" in2="DILATED" operator="in" result="OUTLINE"></feComposite>        <feMerge>            <feMergeNode in="OUTLINE"></feMergeNode>            <feMergeNode in="SourceGraphic"></feMergeNode>        </feMerge>            <feColorMatrix type="matrix" values="0   0   0   0   0                0   1   0   0   0                0   0   0   0   0                0   0   0   1   0 "></feColorMatrix>    </filter></defs></svg>